<svg xmlns="http://www.w3.org/2000/svg" xmlns:xlink="http://www.w3.org/1999/xlink" width="400" zoomAndPan="magnify" viewBox="0 0 300 299.999988" height="400" preserveAspectRatio="xMidYMid meet" version="1.0"><defs><g/><clipPath id="171f3842d1"><path d="M 100.28125 40.539062 L 188 40.539062 L 188 129.039062 L 100.28125 129.039062 Z M 100.28125 40.539062 " clip-rule="nonzero"/></clipPath></defs><path fill="#ffffff" d="M 167.945312 70.277344 C 169.433594 70.007812 170.625 68.730469 170.585938 67.210938 C 170.542969 65.285156 168.804688 63.925781 166.984375 64.269531 L 153.609375 66.761719 C 150.613281 67.316406 147.570312 67.597656 144.523438 67.597656 C 141.476562 67.597656 138.429688 67.316406 135.4375 66.761719 L 122.230469 64.300781 C 120.742188 64.03125 119.171875 64.785156 118.660156 66.207031 C 118.011719 68.019531 119.140625 69.914062 120.960938 70.246094 L 136.933594 73.21875 L 137.152344 81.375 C 137.289062 86.648438 136.714844 91.914062 135.425781 97.03125 L 131.429688 113.003906 C 131.019531 114.648438 131.753906 116.449219 133.300781 117.117188 C 135.269531 117.964844 137.4375 116.835938 137.929688 114.847656 L 143.757812 91.589844 C 143.957031 90.78125 145.109375 90.78125 145.308594 91.589844 L 151.136719 114.847656 C 151.523438 116.382812 152.894531 117.398438 154.414062 117.398438 C 154.925781 117.398438 155.460938 117.285156 155.972656 117.023438 C 157.398438 116.3125 158.054688 114.617188 157.667969 113.066406 L 153.640625 97.042969 C 152.363281 91.925781 151.777344 86.660156 151.914062 81.382812 L 152.132812 73.230469 Z M 167.945312 70.277344 " fill-opacity="1" fill-rule="nonzero"/><path fill="#ffffff" d="M 151.292969 58.953125 C 151.292969 59.398438 151.25 59.835938 151.164062 60.273438 C 151.078125 60.707031 150.949219 61.132812 150.78125 61.542969 C 150.609375 61.953125 150.402344 62.339844 150.15625 62.710938 C 149.910156 63.078125 149.628906 63.421875 149.3125 63.734375 C 149 64.050781 148.660156 64.328125 148.289062 64.574219 C 147.921875 64.824219 147.53125 65.03125 147.121094 65.199219 C 146.710938 65.371094 146.289062 65.5 145.851562 65.585938 C 145.417969 65.671875 144.976562 65.714844 144.535156 65.714844 C 144.089844 65.714844 143.648438 65.671875 143.214844 65.585938 C 142.777344 65.5 142.355469 65.371094 141.945312 65.199219 C 141.535156 65.03125 141.144531 64.824219 140.777344 64.574219 C 140.40625 64.328125 140.066406 64.050781 139.753906 63.734375 C 139.4375 63.421875 139.15625 63.078125 138.910156 62.710938 C 138.664062 62.339844 138.457031 61.953125 138.285156 61.542969 C 138.117188 61.132812 137.988281 60.707031 137.902344 60.273438 C 137.816406 59.835938 137.773438 59.398438 137.773438 58.953125 C 137.773438 58.511719 137.816406 58.070312 137.902344 57.636719 C 137.988281 57.199219 138.117188 56.777344 138.285156 56.367188 C 138.457031 55.957031 138.664062 55.566406 138.910156 55.199219 C 139.15625 54.828125 139.4375 54.488281 139.753906 54.171875 C 140.066406 53.859375 140.40625 53.578125 140.777344 53.332031 C 141.144531 53.085938 141.535156 52.878906 141.945312 52.707031 C 142.355469 52.539062 142.777344 52.410156 143.214844 52.324219 C 143.648438 52.234375 144.089844 52.191406 144.535156 52.191406 C 144.976562 52.191406 145.417969 52.234375 145.851562 52.324219 C 146.289062 52.410156 146.710938 52.539062 147.121094 52.707031 C 147.53125 52.878906 147.921875 53.085938 148.289062 53.332031 C 148.660156 53.578125 149 53.859375 149.3125 54.171875 C 149.628906 54.488281 149.910156 54.828125 150.15625 55.199219 C 150.402344 55.566406 150.609375 55.957031 150.78125 56.367188 C 150.949219 56.777344 151.078125 57.199219 151.164062 57.636719 C 151.25 58.070312 151.292969 58.511719 151.292969 58.953125 Z M 151.292969 58.953125 " fill-opacity="1" fill-rule="nonzero"/><g clip-path="url(#171f3842d1)"><path fill="#ffffff" d="M 144.535156 124.371094 C 122.699219 124.371094 104.949219 106.621094 104.949219 84.804688 C 104.949219 62.972656 122.699219 45.222656 144.535156 45.222656 C 163.132812 45.222656 178.75 58.09375 182.976562 75.40625 C 184.683594 75.429688 186.335938 75.648438 187.929688 76.054688 C 183.855469 55.835938 165.949219 40.542969 144.535156 40.542969 C 120.125 40.554688 100.28125 60.398438 100.28125 84.804688 C 100.28125 109.195312 120.125 129.039062 144.535156 129.039062 C 156.066406 129.039062 166.566406 124.613281 174.457031 117.359375 C 172.910156 116.742188 171.453125 115.957031 170.082031 115.003906 C 163.183594 120.832031 154.265625 124.371094 144.535156 124.371094 Z M 144.535156 124.371094 " fill-opacity="1" fill-rule="nonzero"/></g><path fill="#ffffff" d="M 182.570312 80.054688 C 173.085938 80.054688 165.425781 87.714844 165.425781 97.199219 C 165.425781 106.597656 173.085938 114.261719 182.570312 114.261719 C 192.050781 114.261719 199.714844 106.597656 199.714844 97.117188 C 199.628906 87.726562 191.96875 80.054688 182.570312 80.054688 Z M 190.566406 94.898438 L 181.667969 103.792969 C 181.175781 104.285156 180.601562 104.535156 179.941406 104.535156 C 179.28125 104.535156 178.707031 104.285156 178.214844 103.792969 L 173.757812 99.34375 C 172.84375 98.359375 172.84375 96.875 173.757812 95.878906 C 174.667969 94.96875 176.226562 94.96875 177.222656 95.878906 L 179.941406 98.601562 L 187.113281 91.433594 C 188.023438 90.519531 189.582031 90.519531 190.578125 91.433594 C 191.476562 92.425781 191.476562 93.984375 190.566406 94.898438 Z M 190.566406 94.898438 " fill-opacity="1" fill-rule="nonzero"/><g fill="#ffffff" fill-opacity="1"><g transform="translate(5.32986, 182.456868)"><g><path d="M 19.175781 0 L 17.292969 -6.183594 L 7.820312 -6.183594 L 5.9375 0 L 0 0 L 9.171875 -26.089844 L 15.90625 -26.089844 L 25.113281 0 Z M 15.976562 -10.804688 C 14.238281 -16.410156 13.257812 -19.582031 13.035156 -20.316406 C 12.816406 -21.050781 12.660156 -21.628906 12.566406 -22.058594 C 12.175781 -20.539062 11.054688 -16.789062 9.207031 -10.804688 Z M 15.976562 -10.804688 "/></g></g></g><g fill="#ffffff" fill-opacity="1"><g transform="translate(30.442214, 182.456868)"><g><path d="M 14.308594 -21.773438 C 12.234375 -21.773438 10.628906 -20.992188 9.492188 -19.433594 C 8.355469 -17.878906 7.785156 -15.707031 7.785156 -12.921875 C 7.785156 -7.128906 9.960938 -4.230469 14.308594 -4.230469 C 16.132812 -4.230469 18.34375 -4.6875 20.9375 -5.597656 L 20.9375 -0.976562 C 18.804688 -0.0898438 16.421875 0.355469 13.792969 0.355469 C 10.011719 0.355469 7.121094 -0.789062 5.117188 -3.082031 C 3.117188 -5.375 2.113281 -8.667969 2.113281 -12.957031 C 2.113281 -15.660156 2.605469 -18.023438 3.589844 -20.058594 C 4.574219 -22.089844 5.988281 -23.648438 7.828125 -24.730469 C 9.671875 -25.816406 11.832031 -26.359375 14.308594 -26.359375 C 16.832031 -26.359375 19.367188 -25.746094 21.914062 -24.527344 L 20.136719 -20.046875 C 19.164062 -20.511719 18.1875 -20.914062 17.203125 -21.257812 C 16.222656 -21.601562 15.253906 -21.773438 14.308594 -21.773438 Z M 14.308594 -21.773438 "/></g></g></g><g fill="#ffffff" fill-opacity="1"><g transform="translate(53.635152, 182.456868)"><g><path d="M 18.234375 0 L 3.269531 0 L 3.269531 -25.984375 L 18.234375 -25.984375 L 18.234375 -21.46875 L 8.78125 -21.46875 L 8.78125 -15.765625 L 17.578125 -15.765625 L 17.578125 -11.25 L 8.78125 -11.25 L 8.78125 -4.550781 L 18.234375 -4.550781 Z M 18.234375 0 "/></g></g></g><g fill="#ffffff" fill-opacity="1"><g transform="translate(74.020057, 182.456868)"><g><path d="M 18.609375 -7.214844 C 18.609375 -4.871094 17.765625 -3.023438 16.074219 -1.671875 C 14.386719 -0.320312 12.039062 0.355469 9.027344 0.355469 C 6.257812 0.355469 3.804688 -0.164062 1.671875 -1.207031 L 1.671875 -6.328125 C 3.425781 -5.546875 4.910156 -4.996094 6.121094 -4.675781 C 7.335938 -4.355469 8.449219 -4.195312 9.457031 -4.195312 C 10.664062 -4.195312 11.589844 -4.425781 12.238281 -4.886719 C 12.882812 -5.351562 13.207031 -6.035156 13.207031 -6.949219 C 13.207031 -7.457031 13.0625 -7.914062 12.777344 -8.308594 C 12.496094 -8.707031 12.078125 -9.089844 11.527344 -9.457031 C 10.976562 -9.824219 9.851562 -10.410156 8.15625 -11.214844 C 6.570312 -11.960938 5.378906 -12.679688 4.585938 -13.367188 C 3.792969 -14.054688 3.15625 -14.851562 2.683594 -15.765625 C 2.210938 -16.675781 1.972656 -17.742188 1.972656 -18.964844 C 1.972656 -21.261719 2.75 -23.070312 4.308594 -24.386719 C 5.867188 -25.699219 8.023438 -26.359375 10.769531 -26.359375 C 12.121094 -26.359375 13.410156 -26.199219 14.636719 -25.878906 C 15.863281 -25.558594 17.144531 -25.109375 18.484375 -24.527344 L 16.707031 -20.242188 C 15.320312 -20.8125 14.175781 -21.210938 13.269531 -21.433594 C 12.363281 -21.660156 11.46875 -21.773438 10.59375 -21.773438 C 9.550781 -21.773438 8.75 -21.53125 8.195312 -21.042969 C 7.636719 -20.558594 7.359375 -19.925781 7.359375 -19.140625 C 7.359375 -18.65625 7.472656 -18.234375 7.695312 -17.871094 C 7.921875 -17.511719 8.28125 -17.160156 8.769531 -16.824219 C 9.261719 -16.484375 10.425781 -15.878906 12.265625 -15 C 14.691406 -13.839844 16.359375 -12.675781 17.257812 -11.507812 C 18.160156 -10.339844 18.609375 -8.910156 18.609375 -7.214844 Z M 18.609375 -7.214844 "/></g></g></g><g fill="#ffffff" fill-opacity="1"><g transform="translate(94.067287, 182.456868)"><g><path d="M 18.609375 -7.214844 C 18.609375 -4.871094 17.765625 -3.023438 16.074219 -1.671875 C 14.386719 -0.320312 12.039062 0.355469 9.027344 0.355469 C 6.257812 0.355469 3.804688 -0.164062 1.671875 -1.207031 L 1.671875 -6.328125 C 3.425781 -5.546875 4.910156 -4.996094 6.121094 -4.675781 C 7.335938 -4.355469 8.449219 -4.195312 9.457031 -4.195312 C 10.664062 -4.195312 11.589844 -4.425781 12.238281 -4.886719 C 12.882812 -5.351562 13.207031 -6.035156 13.207031 -6.949219 C 13.207031 -7.457031 13.0625 -7.914062 12.777344 -8.308594 C 12.496094 -8.707031 12.078125 -9.089844 11.527344 -9.457031 C 10.976562 -9.824219 9.851562 -10.410156 8.15625 -11.214844 C 6.570312 -11.960938 5.378906 -12.679688 4.585938 -13.367188 C 3.792969 -14.054688 3.15625 -14.851562 2.683594 -15.765625 C 2.210938 -16.675781 1.972656 -17.742188 1.972656 -18.964844 C 1.972656 -21.261719 2.75 -23.070312 4.308594 -24.386719 C 5.867188 -25.699219 8.023438 -26.359375 10.769531 -26.359375 C 12.121094 -26.359375 13.410156 -26.199219 14.636719 -25.878906 C 15.863281 -25.558594 17.144531 -25.109375 18.484375 -24.527344 L 16.707031 -20.242188 C 15.320312 -20.8125 14.175781 -21.210938 13.269531 -21.433594 C 12.363281 -21.660156 11.46875 -21.773438 10.59375 -21.773438 C 9.550781 -21.773438 8.75 -21.53125 8.195312 -21.042969 C 7.636719 -20.558594 7.359375 -19.925781 7.359375 -19.140625 C 7.359375 -18.65625 7.472656 -18.234375 7.695312 -17.871094 C 7.921875 -17.511719 8.28125 -17.160156 8.769531 -16.824219 C 9.261719 -16.484375 10.425781 -15.878906 12.265625 -15 C 14.691406 -13.839844 16.359375 -12.675781 17.257812 -11.507812 C 18.160156 -10.339844 18.609375 -8.910156 18.609375 -7.214844 Z M 18.609375 -7.214844 "/></g></g></g><g fill="#ffffff" fill-opacity="1"><g transform="translate(114.114516, 182.456868)"><g><path d="M 3.269531 -25.984375 L 8.78125 -25.984375 L 8.78125 0 L 3.269531 0 Z M 3.269531 -25.984375 "/></g></g></g><g fill="#ffffff" fill-opacity="1"><g transform="translate(126.164181, 182.456868)"><g><path d="M 3.269531 -25.984375 L 11.355469 -25.984375 C 15.042969 -25.984375 17.71875 -25.460938 19.382812 -24.410156 C 21.046875 -23.363281 21.878906 -21.695312 21.878906 -19.410156 C 21.878906 -17.855469 21.515625 -16.582031 20.785156 -15.585938 C 20.058594 -14.59375 19.089844 -13.992188 17.878906 -13.792969 L 17.878906 -13.613281 C 19.527344 -13.246094 20.714844 -12.558594 21.445312 -11.554688 C 22.171875 -10.546875 22.535156 -9.207031 22.535156 -7.535156 C 22.535156 -5.167969 21.679688 -3.316406 19.96875 -1.992188 C 18.257812 -0.664062 15.929688 0 12.992188 0 L 3.269531 0 Z M 8.78125 -15.695312 L 11.980469 -15.695312 C 13.472656 -15.695312 14.554688 -15.925781 15.222656 -16.386719 C 15.890625 -16.847656 16.226562 -17.613281 16.226562 -18.679688 C 16.226562 -19.675781 15.863281 -20.390625 15.132812 -20.820312 C 14.40625 -21.253906 13.253906 -21.46875 11.675781 -21.46875 L 8.78125 -21.46875 Z M 8.78125 -11.320312 L 8.78125 -4.550781 L 12.371094 -4.550781 C 13.886719 -4.550781 15.007812 -4.839844 15.730469 -5.421875 C 16.453125 -6 16.8125 -6.890625 16.8125 -8.085938 C 16.8125 -10.242188 15.273438 -11.320312 12.191406 -11.320312 Z M 8.78125 -11.320312 "/></g></g></g><g fill="#ffffff" fill-opacity="1"><g transform="translate(150.618958, 182.456868)"><g><path d="M 3.269531 -25.984375 L 8.78125 -25.984375 L 8.78125 0 L 3.269531 0 Z M 3.269531 -25.984375 "/></g></g></g><g fill="#ffffff" fill-opacity="1"><g transform="translate(162.668623, 182.456868)"><g><path d="M 3.269531 0 L 3.269531 -25.984375 L 8.78125 -25.984375 L 8.78125 -4.550781 L 19.320312 -4.550781 L 19.320312 0 Z M 3.269531 0 "/></g></g></g><g fill="#ffffff" fill-opacity="1"><g transform="translate(183.231251, 182.456868)"><g><path d="M 3.269531 -25.984375 L 8.78125 -25.984375 L 8.78125 0 L 3.269531 0 Z M 3.269531 -25.984375 "/></g></g></g><g fill="#ffffff" fill-opacity="1"><g transform="translate(195.280916, 182.456868)"><g><path d="M 24.828125 -13.242188 C 24.828125 -8.964844 23.613281 -5.6875 21.175781 -3.414062 C 18.742188 -1.136719 15.226562 0 10.628906 0 L 3.269531 0 L 3.269531 -25.984375 L 11.429688 -25.984375 C 15.671875 -25.984375 18.964844 -24.863281 21.308594 -22.625 C 23.65625 -20.386719 24.828125 -17.257812 24.828125 -13.242188 Z M 19.105469 -13.097656 C 19.105469 -18.679688 16.640625 -21.46875 11.710938 -21.46875 L 8.78125 -21.46875 L 8.78125 -4.550781 L 11.144531 -4.550781 C 16.453125 -4.550781 19.105469 -7.398438 19.105469 -13.097656 Z M 19.105469 -13.097656 "/></g></g></g><g fill="#ffffff" fill-opacity="1"><g transform="translate(222.223824, 182.456868)"><g><path d="M 19.175781 0 L 17.292969 -6.183594 L 7.820312 -6.183594 L 5.9375 0 L 0 0 L 9.171875 -26.089844 L 15.90625 -26.089844 L 25.113281 0 Z M 15.976562 -10.804688 C 14.238281 -16.410156 13.257812 -19.582031 13.035156 -20.316406 C 12.816406 -21.050781 12.660156 -21.628906 12.566406 -22.058594 C 12.175781 -20.539062 11.054688 -16.789062 9.207031 -10.804688 Z M 15.976562 -10.804688 "/></g></g></g><g fill="#ffffff" fill-opacity="1"><g transform="translate(247.336168, 182.456868)"><g><path d="M 24.828125 -13.242188 C 24.828125 -8.964844 23.613281 -5.6875 21.175781 -3.414062 C 18.742188 -1.136719 15.226562 0 10.628906 0 L 3.269531 0 L 3.269531 -25.984375 L 11.429688 -25.984375 C 15.671875 -25.984375 18.964844 -24.863281 21.308594 -22.625 C 23.65625 -20.386719 24.828125 -17.257812 24.828125 -13.242188 Z M 19.105469 -13.097656 C 19.105469 -18.679688 16.640625 -21.46875 11.710938 -21.46875 L 8.78125 -21.46875 L 8.78125 -4.550781 L 11.144531 -4.550781 C 16.453125 -4.550781 19.105469 -7.398438 19.105469 -13.097656 Z M 19.105469 -13.097656 "/></g></g></g><g fill="#ffffff" fill-opacity="1"><g transform="translate(274.279076, 182.456868)"><g><path d="M 18.234375 0 L 3.269531 0 L 3.269531 -25.984375 L 18.234375 -25.984375 L 18.234375 -21.46875 L 8.78125 -21.46875 L 8.78125 -15.765625 L 17.578125 -15.765625 L 17.578125 -11.25 L 8.78125 -11.25 L 8.78125 -4.550781 L 18.234375 -4.550781 Z M 18.234375 0 "/></g></g></g><g fill="#ffffff" fill-opacity="1"><g transform="translate(54.021864, 233.34011)"><g/></g></g><g fill="#ffffff" fill-opacity="1"><g transform="translate(63.484906, 233.34011)"><g><path d="M 19.175781 0 L 17.292969 -6.183594 L 7.820312 -6.183594 L 5.9375 0 L 0 0 L 9.171875 -26.089844 L 15.90625 -26.089844 L 25.113281 0 Z M 15.976562 -10.804688 C 14.238281 -16.410156 13.257812 -19.582031 13.035156 -20.316406 C 12.816406 -21.050781 12.660156 -21.628906 12.566406 -22.058594 C 12.175781 -20.539062 11.054688 -16.789062 9.207031 -10.804688 Z M 15.976562 -10.804688 "/></g></g></g><g fill="#ffffff" fill-opacity="1"><g transform="translate(88.597261, 233.34011)"><g><path d="M 18.609375 -7.214844 C 18.609375 -4.871094 17.765625 -3.023438 16.074219 -1.671875 C 14.386719 -0.320312 12.039062 0.355469 9.027344 0.355469 C 6.257812 0.355469 3.804688 -0.164062 1.671875 -1.207031 L 1.671875 -6.328125 C 3.425781 -5.546875 4.910156 -4.996094 6.121094 -4.675781 C 7.335938 -4.355469 8.449219 -4.195312 9.457031 -4.195312 C 10.664062 -4.195312 11.589844 -4.425781 12.238281 -4.886719 C 12.882812 -5.351562 13.207031 -6.035156 13.207031 -6.949219 C 13.207031 -7.457031 13.0625 -7.914062 12.777344 -8.308594 C 12.496094 -8.707031 12.078125 -9.089844 11.527344 -9.457031 C 10.976562 -9.824219 9.851562 -10.410156 8.15625 -11.214844 C 6.570312 -11.960938 5.378906 -12.679688 4.585938 -13.367188 C 3.792969 -14.054688 3.15625 -14.851562 2.683594 -15.765625 C 2.210938 -16.675781 1.972656 -17.742188 1.972656 -18.964844 C 1.972656 -21.261719 2.75 -23.070312 4.308594 -24.386719 C 5.867188 -25.699219 8.023438 -26.359375 10.769531 -26.359375 C 12.121094 -26.359375 13.410156 -26.199219 14.636719 -25.878906 C 15.863281 -25.558594 17.144531 -25.109375 18.484375 -24.527344 L 16.707031 -20.242188 C 15.320312 -20.8125 14.175781 -21.210938 13.269531 -21.433594 C 12.363281 -21.660156 11.46875 -21.773438 10.59375 -21.773438 C 9.550781 -21.773438 8.75 -21.53125 8.195312 -21.042969 C 7.636719 -20.558594 7.359375 -19.925781 7.359375 -19.140625 C 7.359375 -18.65625 7.472656 -18.234375 7.695312 -17.871094 C 7.921875 -17.511719 8.28125 -17.160156 8.769531 -16.824219 C 9.261719 -16.484375 10.425781 -15.878906 12.265625 -15 C 14.691406 -13.839844 16.359375 -12.675781 17.257812 -11.507812 C 18.160156 -10.339844 18.609375 -8.910156 18.609375 -7.214844 Z M 18.609375 -7.214844 "/></g></g></g><g fill="#ffffff" fill-opacity="1"><g transform="translate(108.64449, 233.34011)"><g><path d="M 18.609375 -7.214844 C 18.609375 -4.871094 17.765625 -3.023438 16.074219 -1.671875 C 14.386719 -0.320312 12.039062 0.355469 9.027344 0.355469 C 6.257812 0.355469 3.804688 -0.164062 1.671875 -1.207031 L 1.671875 -6.328125 C 3.425781 -5.546875 4.910156 -4.996094 6.121094 -4.675781 C 7.335938 -4.355469 8.449219 -4.195312 9.457031 -4.195312 C 10.664062 -4.195312 11.589844 -4.425781 12.238281 -4.886719 C 12.882812 -5.351562 13.207031 -6.035156 13.207031 -6.949219 C 13.207031 -7.457031 13.0625 -7.914062 12.777344 -8.308594 C 12.496094 -8.707031 12.078125 -9.089844 11.527344 -9.457031 C 10.976562 -9.824219 9.851562 -10.410156 8.15625 -11.214844 C 6.570312 -11.960938 5.378906 -12.679688 4.585938 -13.367188 C 3.792969 -14.054688 3.15625 -14.851562 2.683594 -15.765625 C 2.210938 -16.675781 1.972656 -17.742188 1.972656 -18.964844 C 1.972656 -21.261719 2.75 -23.070312 4.308594 -24.386719 C 5.867188 -25.699219 8.023438 -26.359375 10.769531 -26.359375 C 12.121094 -26.359375 13.410156 -26.199219 14.636719 -25.878906 C 15.863281 -25.558594 17.144531 -25.109375 18.484375 -24.527344 L 16.707031 -20.242188 C 15.320312 -20.8125 14.175781 -21.210938 13.269531 -21.433594 C 12.363281 -21.660156 11.46875 -21.773438 10.59375 -21.773438 C 9.550781 -21.773438 8.75 -21.53125 8.195312 -21.042969 C 7.636719 -20.558594 7.359375 -19.925781 7.359375 -19.140625 C 7.359375 -18.65625 7.472656 -18.234375 7.695312 -17.871094 C 7.921875 -17.511719 8.28125 -17.160156 8.769531 -16.824219 C 9.261719 -16.484375 10.425781 -15.878906 12.265625 -15 C 14.691406 -13.839844 16.359375 -12.675781 17.257812 -11.507812 C 18.160156 -10.339844 18.609375 -8.910156 18.609375 -7.214844 Z M 18.609375 -7.214844 "/></g></g></g><g fill="#ffffff" fill-opacity="1"><g transform="translate(128.69172, 233.34011)"><g><path d="M 3.269531 -25.984375 L 8.78125 -25.984375 L 8.78125 0 L 3.269531 0 Z M 3.269531 -25.984375 "/></g></g></g><g fill="#ffffff" fill-opacity="1"><g transform="translate(140.741385, 233.34011)"><g><path d="M 18.609375 -7.214844 C 18.609375 -4.871094 17.765625 -3.023438 16.074219 -1.671875 C 14.386719 -0.320312 12.039062 0.355469 9.027344 0.355469 C 6.257812 0.355469 3.804688 -0.164062 1.671875 -1.207031 L 1.671875 -6.328125 C 3.425781 -5.546875 4.910156 -4.996094 6.121094 -4.675781 C 7.335938 -4.355469 8.449219 -4.195312 9.457031 -4.195312 C 10.664062 -4.195312 11.589844 -4.425781 12.238281 -4.886719 C 12.882812 -5.351562 13.207031 -6.035156 13.207031 -6.949219 C 13.207031 -7.457031 13.0625 -7.914062 12.777344 -8.308594 C 12.496094 -8.707031 12.078125 -9.089844 11.527344 -9.457031 C 10.976562 -9.824219 9.851562 -10.410156 8.15625 -11.214844 C 6.570312 -11.960938 5.378906 -12.679688 4.585938 -13.367188 C 3.792969 -14.054688 3.15625 -14.851562 2.683594 -15.765625 C 2.210938 -16.675781 1.972656 -17.742188 1.972656 -18.964844 C 1.972656 -21.261719 2.75 -23.070312 4.308594 -24.386719 C 5.867188 -25.699219 8.023438 -26.359375 10.769531 -26.359375 C 12.121094 -26.359375 13.410156 -26.199219 14.636719 -25.878906 C 15.863281 -25.558594 17.144531 -25.109375 18.484375 -24.527344 L 16.707031 -20.242188 C 15.320312 -20.8125 14.175781 -21.210938 13.269531 -21.433594 C 12.363281 -21.660156 11.46875 -21.773438 10.59375 -21.773438 C 9.550781 -21.773438 8.75 -21.53125 8.195312 -21.042969 C 7.636719 -20.558594 7.359375 -19.925781 7.359375 -19.140625 C 7.359375 -18.65625 7.472656 -18.234375 7.695312 -17.871094 C 7.921875 -17.511719 8.28125 -17.160156 8.769531 -16.824219 C 9.261719 -16.484375 10.425781 -15.878906 12.265625 -15 C 14.691406 -13.839844 16.359375 -12.675781 17.257812 -11.507812 C 18.160156 -10.339844 18.609375 -8.910156 18.609375 -7.214844 Z M 18.609375 -7.214844 "/></g></g></g><g fill="#ffffff" fill-opacity="1"><g transform="translate(160.788615, 233.34011)"><g><path d="M 13.292969 0 L 7.785156 0 L 7.785156 -21.398438 L 0.730469 -21.398438 L 0.730469 -25.984375 L 20.351562 -25.984375 L 20.351562 -21.398438 L 13.292969 -21.398438 Z M 13.292969 0 "/></g></g></g><g fill="#ffffff" fill-opacity="1"><g transform="translate(181.866642, 233.34011)"><g><path d="M 3.269531 -25.984375 L 8.78125 -25.984375 L 8.78125 0 L 3.269531 0 Z M 3.269531 -25.984375 "/></g></g></g><g fill="#ffffff" fill-opacity="1"><g transform="translate(193.916306, 233.34011)"><g><path d="M 24.828125 -13.242188 C 24.828125 -8.964844 23.613281 -5.6875 21.175781 -3.414062 C 18.742188 -1.136719 15.226562 0 10.628906 0 L 3.269531 0 L 3.269531 -25.984375 L 11.429688 -25.984375 C 15.671875 -25.984375 18.964844 -24.863281 21.308594 -22.625 C 23.65625 -20.386719 24.828125 -17.257812 24.828125 -13.242188 Z M 19.105469 -13.097656 C 19.105469 -18.679688 16.640625 -21.46875 11.710938 -21.46875 L 8.78125 -21.46875 L 8.78125 -4.550781 L 11.144531 -4.550781 C 16.453125 -4.550781 19.105469 -7.398438 19.105469 -13.097656 Z M 19.105469 -13.097656 "/></g></g></g><g fill="#ffffff" fill-opacity="1"><g transform="translate(220.859215, 233.34011)"><g><path d="M 19.175781 0 L 17.292969 -6.183594 L 7.820312 -6.183594 L 5.9375 0 L 0 0 L 9.171875 -26.089844 L 15.90625 -26.089844 L 25.113281 0 Z M 15.976562 -10.804688 C 14.238281 -16.410156 13.257812 -19.582031 13.035156 -20.316406 C 12.816406 -21.050781 12.660156 -21.628906 12.566406 -22.058594 C 12.175781 -20.539062 11.054688 -16.789062 9.207031 -10.804688 Z M 15.976562 -10.804688 "/></g></g></g></svg>