<svg xmlns="http://www.w3.org/2000/svg" xmlns:xlink="http://www.w3.org/1999/xlink" width="794" zoomAndPan="magnify" viewBox="0 0 595.5 419.249996" height="559" preserveAspectRatio="xMidYMid meet" version="1.0"><defs><g/><clipPath id="e7add76330"><path d="M 258.402344 89.335938 L 327 89.335938 L 327 158.167969 L 258.402344 158.167969 Z M 258.402344 89.335938 " clip-rule="nonzero"/></clipPath></defs><path fill="#ffffff" d="M 311.035156 112.464844 C 312.191406 112.253906 313.117188 111.261719 313.085938 110.082031 C 313.054688 108.582031 311.703125 107.523438 310.285156 107.792969 L 299.882812 109.730469 C 297.554688 110.160156 295.183594 110.382812 292.816406 110.382812 C 290.445312 110.382812 288.078125 110.160156 285.75 109.730469 L 275.476562 107.816406 C 274.320312 107.605469 273.097656 108.191406 272.699219 109.300781 C 272.195312 110.707031 273.074219 112.179688 274.488281 112.441406 L 286.914062 114.753906 L 287.082031 121.09375 C 287.191406 125.199219 286.742188 129.292969 285.742188 133.273438 L 282.628906 145.695312 C 282.3125 146.976562 282.882812 148.375 284.085938 148.894531 C 285.617188 149.554688 287.304688 148.675781 287.6875 147.128906 L 292.21875 129.039062 C 292.375 128.414062 293.269531 128.414062 293.425781 129.039062 L 297.960938 147.128906 C 298.261719 148.328125 299.328125 149.117188 300.507812 149.117188 C 300.90625 149.117188 301.320312 149.027344 301.722656 148.824219 C 302.828125 148.269531 303.339844 146.949219 303.039062 145.746094 L 299.90625 133.28125 C 298.914062 129.300781 298.457031 125.207031 298.5625 121.101562 L 298.734375 114.761719 Z M 311.035156 112.464844 " fill-opacity="1" fill-rule="nonzero"/><path fill="#ffffff" d="M 298.082031 103.65625 C 298.082031 104.003906 298.046875 104.34375 297.980469 104.683594 C 297.914062 105.023438 297.8125 105.351562 297.679688 105.667969 C 297.550781 105.988281 297.386719 106.292969 297.195312 106.578125 C 297.003906 106.867188 296.785156 107.132812 296.542969 107.375 C 296.296875 107.621094 296.03125 107.839844 295.746094 108.03125 C 295.457031 108.222656 295.15625 108.382812 294.835938 108.515625 C 294.515625 108.648438 294.1875 108.746094 293.847656 108.816406 C 293.511719 108.882812 293.167969 108.917969 292.824219 108.917969 C 292.476562 108.917969 292.136719 108.882812 291.796875 108.816406 C 291.457031 108.746094 291.128906 108.648438 290.808594 108.515625 C 290.492188 108.382812 290.1875 108.222656 289.902344 108.03125 C 289.613281 107.839844 289.347656 107.621094 289.105469 107.375 C 288.859375 107.132812 288.640625 106.867188 288.449219 106.578125 C 288.257812 106.292969 288.097656 105.988281 287.964844 105.667969 C 287.832031 105.351562 287.730469 105.023438 287.664062 104.683594 C 287.597656 104.34375 287.5625 104.003906 287.5625 103.65625 C 287.5625 103.3125 287.597656 102.96875 287.664062 102.632812 C 287.730469 102.292969 287.832031 101.964844 287.964844 101.644531 C 288.097656 101.324219 288.257812 101.023438 288.449219 100.734375 C 288.640625 100.449219 288.859375 100.183594 289.105469 99.9375 C 289.347656 99.695312 289.613281 99.476562 289.902344 99.285156 C 290.1875 99.09375 290.492188 98.929688 290.808594 98.796875 C 291.128906 98.667969 291.457031 98.566406 291.796875 98.5 C 292.136719 98.433594 292.476562 98.398438 292.824219 98.398438 C 293.167969 98.398438 293.511719 98.433594 293.847656 98.5 C 294.1875 98.566406 294.515625 98.667969 294.835938 98.796875 C 295.15625 98.929688 295.457031 99.09375 295.746094 99.285156 C 296.03125 99.476562 296.296875 99.695312 296.542969 99.9375 C 296.785156 100.183594 297.003906 100.449219 297.195312 100.734375 C 297.386719 101.023438 297.550781 101.324219 297.679688 101.644531 C 297.8125 101.964844 297.914062 102.292969 297.980469 102.632812 C 298.046875 102.96875 298.082031 103.3125 298.082031 103.65625 Z M 298.082031 103.65625 " fill-opacity="1" fill-rule="nonzero"/><g clip-path="url(#e7add76330)"><path fill="#ffffff" d="M 292.824219 154.539062 C 275.839844 154.539062 262.035156 140.730469 262.035156 123.765625 C 262.035156 106.785156 275.839844 92.976562 292.824219 92.976562 C 307.289062 92.976562 319.433594 102.988281 322.722656 116.453125 C 324.050781 116.472656 325.335938 116.640625 326.574219 116.960938 C 323.410156 101.230469 309.480469 89.335938 292.824219 89.335938 C 273.839844 89.34375 258.402344 104.78125 258.402344 123.765625 C 258.402344 142.734375 273.839844 158.167969 292.824219 158.167969 C 301.792969 158.167969 309.960938 154.726562 316.097656 149.082031 C 314.894531 148.601562 313.761719 147.992188 312.695312 147.25 C 307.328125 151.785156 300.394531 154.539062 292.824219 154.539062 Z M 292.824219 154.539062 " fill-opacity="1" fill-rule="nonzero"/></g><path fill="#ffffff" d="M 322.40625 120.070312 C 315.03125 120.070312 309.070312 126.027344 309.070312 133.402344 C 309.070312 140.714844 315.03125 146.671875 322.40625 146.671875 C 329.78125 146.671875 335.742188 140.714844 335.742188 133.339844 C 335.675781 126.035156 329.71875 120.070312 322.40625 120.070312 Z M 328.625 131.613281 L 321.707031 138.53125 C 321.324219 138.914062 320.875 139.109375 320.363281 139.109375 C 319.851562 139.109375 319.402344 138.914062 319.019531 138.53125 L 315.550781 135.074219 C 314.84375 134.308594 314.84375 133.152344 315.550781 132.378906 C 316.261719 131.671875 317.472656 131.671875 318.246094 132.378906 L 320.363281 134.496094 L 325.941406 128.917969 C 326.648438 128.210938 327.863281 128.210938 328.632812 128.917969 C 329.335938 129.691406 329.335938 130.90625 328.625 131.613281 Z M 328.625 131.613281 " fill-opacity="1" fill-rule="nonzero"/><g fill="#ffffff" fill-opacity="1"><g transform="translate(184.327861, 200.052709)"><g><path d="M 14.960938 0 L 13.492188 -4.824219 L 6.101562 -4.824219 L 4.632812 0 L 0 0 L 7.15625 -20.355469 L 12.410156 -20.355469 L 19.59375 0 Z M 12.464844 -8.429688 C 11.105469 -12.804688 10.339844 -15.277344 10.171875 -15.847656 C 10 -16.421875 9.878906 -16.875 9.804688 -17.207031 C 9.5 -16.023438 8.625 -13.097656 7.183594 -8.429688 Z M 12.464844 -8.429688 "/></g></g></g><g fill="#ffffff" fill-opacity="1"><g transform="translate(203.919195, 200.052709)"><g><path d="M 11.160156 -16.984375 C 9.542969 -16.984375 8.292969 -16.378906 7.40625 -15.164062 C 6.515625 -13.945312 6.074219 -12.253906 6.074219 -10.082031 C 6.074219 -5.558594 7.769531 -3.300781 11.160156 -3.300781 C 12.585938 -3.300781 14.308594 -3.65625 16.335938 -4.367188 L 16.335938 -0.761719 C 14.671875 -0.0703125 12.8125 0.277344 10.761719 0.277344 C 7.8125 0.277344 5.554688 -0.617188 3.992188 -2.40625 C 2.429688 -4.195312 1.648438 -6.761719 1.648438 -10.109375 C 1.648438 -12.214844 2.035156 -14.0625 2.800781 -15.648438 C 3.566406 -17.234375 4.671875 -18.449219 6.109375 -19.292969 C 7.546875 -20.140625 9.230469 -20.5625 11.160156 -20.5625 C 13.132812 -20.5625 15.109375 -20.085938 17.097656 -19.136719 L 15.710938 -15.640625 C 14.953125 -16 14.191406 -16.316406 13.421875 -16.582031 C 12.65625 -16.851562 11.902344 -16.984375 11.160156 -16.984375 Z M 11.160156 -16.984375 "/></g></g></g><g fill="#ffffff" fill-opacity="1"><g transform="translate(222.013103, 200.052709)"><g><path d="M 14.226562 0 L 2.550781 0 L 2.550781 -20.273438 L 14.226562 -20.273438 L 14.226562 -16.75 L 6.851562 -16.75 L 6.851562 -12.300781 L 13.714844 -12.300781 L 13.714844 -8.777344 L 6.851562 -8.777344 L 6.851562 -3.550781 L 14.226562 -3.550781 Z M 14.226562 0 "/></g></g></g><g fill="#ffffff" fill-opacity="1"><g transform="translate(237.91633, 200.052709)"><g><path d="M 14.519531 -5.628906 C 14.519531 -3.800781 13.859375 -2.355469 12.542969 -1.304688 C 11.222656 -0.25 9.390625 0.277344 7.042969 0.277344 C 4.878906 0.277344 2.96875 -0.128906 1.304688 -0.941406 L 1.304688 -4.9375 C 2.671875 -4.328125 3.828125 -3.894531 4.777344 -3.648438 C 5.722656 -3.398438 6.589844 -3.273438 7.375 -3.273438 C 8.320312 -3.273438 9.042969 -3.453125 9.546875 -3.8125 C 10.050781 -4.171875 10.300781 -4.710938 10.300781 -5.421875 C 10.300781 -5.820312 10.191406 -6.171875 9.96875 -6.480469 C 9.746094 -6.792969 9.421875 -7.089844 8.992188 -7.375 C 8.5625 -7.664062 7.6875 -8.121094 6.363281 -8.75 C 5.125 -9.332031 4.195312 -9.890625 3.578125 -10.425781 C 2.957031 -10.964844 2.464844 -11.585938 2.09375 -12.300781 C 1.722656 -13.011719 1.539062 -13.84375 1.539062 -14.796875 C 1.539062 -16.589844 2.148438 -17.996094 3.363281 -19.023438 C 4.578125 -20.050781 6.257812 -20.5625 8.402344 -20.5625 C 9.457031 -20.5625 10.460938 -20.4375 11.417969 -20.1875 C 12.375 -19.9375 13.375 -19.589844 14.421875 -19.136719 L 13.035156 -15.792969 C 11.953125 -16.238281 11.058594 -16.546875 10.351562 -16.722656 C 9.644531 -16.898438 8.949219 -16.984375 8.265625 -16.984375 C 7.449219 -16.984375 6.828125 -16.796875 6.390625 -16.417969 C 5.957031 -16.039062 5.742188 -15.542969 5.742188 -14.933594 C 5.742188 -14.554688 5.828125 -14.222656 6.003906 -13.941406 C 6.179688 -13.660156 6.460938 -13.386719 6.84375 -13.125 C 7.226562 -12.859375 8.132812 -12.386719 9.566406 -11.703125 C 11.460938 -10.796875 12.761719 -9.890625 13.464844 -8.976562 C 14.167969 -8.066406 14.519531 -6.953125 14.519531 -5.628906 Z M 14.519531 -5.628906 "/></g></g></g><g fill="#ffffff" fill-opacity="1"><g transform="translate(253.556121, 200.052709)"><g><path d="M 14.519531 -5.628906 C 14.519531 -3.800781 13.859375 -2.355469 12.542969 -1.304688 C 11.222656 -0.25 9.390625 0.277344 7.042969 0.277344 C 4.878906 0.277344 2.96875 -0.128906 1.304688 -0.941406 L 1.304688 -4.9375 C 2.671875 -4.328125 3.828125 -3.894531 4.777344 -3.648438 C 5.722656 -3.398438 6.589844 -3.273438 7.375 -3.273438 C 8.320312 -3.273438 9.042969 -3.453125 9.546875 -3.8125 C 10.050781 -4.171875 10.300781 -4.710938 10.300781 -5.421875 C 10.300781 -5.820312 10.191406 -6.171875 9.96875 -6.480469 C 9.746094 -6.792969 9.421875 -7.089844 8.992188 -7.375 C 8.5625 -7.664062 7.6875 -8.121094 6.363281 -8.75 C 5.125 -9.332031 4.195312 -9.890625 3.578125 -10.425781 C 2.957031 -10.964844 2.464844 -11.585938 2.09375 -12.300781 C 1.722656 -13.011719 1.539062 -13.84375 1.539062 -14.796875 C 1.539062 -16.589844 2.148438 -17.996094 3.363281 -19.023438 C 4.578125 -20.050781 6.257812 -20.5625 8.402344 -20.5625 C 9.457031 -20.5625 10.460938 -20.4375 11.417969 -20.1875 C 12.375 -19.9375 13.375 -19.589844 14.421875 -19.136719 L 13.035156 -15.792969 C 11.953125 -16.238281 11.058594 -16.546875 10.351562 -16.722656 C 9.644531 -16.898438 8.949219 -16.984375 8.265625 -16.984375 C 7.449219 -16.984375 6.828125 -16.796875 6.390625 -16.417969 C 5.957031 -16.039062 5.742188 -15.542969 5.742188 -14.933594 C 5.742188 -14.554688 5.828125 -14.222656 6.003906 -13.941406 C 6.179688 -13.660156 6.460938 -13.386719 6.84375 -13.125 C 7.226562 -12.859375 8.132812 -12.386719 9.566406 -11.703125 C 11.460938 -10.796875 12.761719 -9.890625 13.464844 -8.976562 C 14.167969 -8.066406 14.519531 -6.953125 14.519531 -5.628906 Z M 14.519531 -5.628906 "/></g></g></g><g fill="#ffffff" fill-opacity="1"><g transform="translate(269.195913, 200.052709)"><g><path d="M 2.550781 -20.273438 L 6.851562 -20.273438 L 6.851562 0 L 2.550781 0 Z M 2.550781 -20.273438 "/></g></g></g><g fill="#ffffff" fill-opacity="1"><g transform="translate(278.596426, 200.052709)"><g><path d="M 2.550781 -20.273438 L 8.859375 -20.273438 C 11.734375 -20.273438 13.820312 -19.863281 15.121094 -19.042969 C 16.417969 -18.226562 17.070312 -16.925781 17.070312 -15.140625 C 17.070312 -13.929688 16.785156 -12.9375 16.214844 -12.160156 C 15.648438 -11.382812 14.890625 -10.917969 13.949219 -10.761719 L 13.949219 -10.621094 C 15.234375 -10.335938 16.160156 -9.796875 16.730469 -9.011719 C 17.296875 -8.226562 17.582031 -7.183594 17.582031 -5.878906 C 17.582031 -4.03125 16.914062 -2.589844 15.578125 -1.554688 C 14.242188 -0.519531 12.429688 0 10.136719 0 L 2.550781 0 Z M 6.851562 -12.242188 L 9.34375 -12.242188 C 10.511719 -12.242188 11.355469 -12.425781 11.875 -12.785156 C 12.398438 -13.144531 12.660156 -13.742188 12.660156 -14.574219 C 12.660156 -15.347656 12.375 -15.90625 11.808594 -16.242188 C 11.238281 -16.582031 10.339844 -16.75 9.109375 -16.75 L 6.851562 -16.75 Z M 6.851562 -8.832031 L 6.851562 -3.550781 L 9.652344 -3.550781 C 10.832031 -3.550781 11.707031 -3.777344 12.269531 -4.230469 C 12.835938 -4.683594 13.117188 -5.375 13.117188 -6.308594 C 13.117188 -7.992188 11.914062 -8.832031 9.511719 -8.832031 Z M 6.851562 -8.832031 "/></g></g></g><g fill="#ffffff" fill-opacity="1"><g transform="translate(297.674752, 200.052709)"><g><path d="M 2.550781 -20.273438 L 6.851562 -20.273438 L 6.851562 0 L 2.550781 0 Z M 2.550781 -20.273438 "/></g></g></g><g fill="#ffffff" fill-opacity="1"><g transform="translate(307.075265, 200.052709)"><g><path d="M 2.550781 0 L 2.550781 -20.273438 L 6.851562 -20.273438 L 6.851562 -3.550781 L 15.074219 -3.550781 L 15.074219 0 Z M 2.550781 0 "/></g></g></g><g fill="#ffffff" fill-opacity="1"><g transform="translate(323.117143, 200.052709)"><g><path d="M 2.550781 -20.273438 L 6.851562 -20.273438 L 6.851562 0 L 2.550781 0 Z M 2.550781 -20.273438 "/></g></g></g><g fill="#ffffff" fill-opacity="1"><g transform="translate(332.517656, 200.052709)"><g><path d="M 19.371094 -10.332031 C 19.371094 -6.992188 18.421875 -4.4375 16.519531 -2.664062 C 14.621094 -0.886719 11.878906 0 8.292969 0 L 2.550781 0 L 2.550781 -20.273438 L 8.914062 -20.273438 C 12.226562 -20.273438 14.796875 -19.398438 16.625 -17.652344 C 18.457031 -15.902344 19.371094 -13.464844 19.371094 -10.332031 Z M 14.90625 -10.21875 C 14.90625 -14.574219 12.984375 -16.75 9.136719 -16.75 L 6.851562 -16.75 L 6.851562 -3.550781 L 8.695312 -3.550781 C 12.835938 -3.550781 14.90625 -5.773438 14.90625 -10.21875 Z M 14.90625 -10.21875 "/></g></g></g><g fill="#ffffff" fill-opacity="1"><g transform="translate(353.537092, 200.052709)"><g><path d="M 14.960938 0 L 13.492188 -4.824219 L 6.101562 -4.824219 L 4.632812 0 L 0 0 L 7.15625 -20.355469 L 12.410156 -20.355469 L 19.59375 0 Z M 12.464844 -8.429688 C 11.105469 -12.804688 10.339844 -15.277344 10.171875 -15.847656 C 10 -16.421875 9.878906 -16.875 9.804688 -17.207031 C 9.5 -16.023438 8.625 -13.097656 7.183594 -8.429688 Z M 12.464844 -8.429688 "/></g></g></g><g fill="#ffffff" fill-opacity="1"><g transform="translate(373.128419, 200.052709)"><g><path d="M 19.371094 -10.332031 C 19.371094 -6.992188 18.421875 -4.4375 16.519531 -2.664062 C 14.621094 -0.886719 11.878906 0 8.292969 0 L 2.550781 0 L 2.550781 -20.273438 L 8.914062 -20.273438 C 12.226562 -20.273438 14.796875 -19.398438 16.625 -17.652344 C 18.457031 -15.902344 19.371094 -13.464844 19.371094 -10.332031 Z M 14.90625 -10.21875 C 14.90625 -14.574219 12.984375 -16.75 9.136719 -16.75 L 6.851562 -16.75 L 6.851562 -3.550781 L 8.695312 -3.550781 C 12.835938 -3.550781 14.90625 -5.773438 14.90625 -10.21875 Z M 14.90625 -10.21875 "/></g></g></g><g fill="#ffffff" fill-opacity="1"><g transform="translate(394.147855, 200.052709)"><g><path d="M 14.226562 0 L 2.550781 0 L 2.550781 -20.273438 L 14.226562 -20.273438 L 14.226562 -16.75 L 6.851562 -16.75 L 6.851562 -12.300781 L 13.714844 -12.300781 L 13.714844 -8.777344 L 6.851562 -8.777344 L 6.851562 -3.550781 L 14.226562 -3.550781 Z M 14.226562 0 "/></g></g></g><g fill="#ffffff" fill-opacity="1"><g transform="translate(222.314795, 239.749131)"><g/></g></g><g fill="#ffffff" fill-opacity="1"><g transform="translate(229.697361, 239.749131)"><g><path d="M 14.960938 0 L 13.492188 -4.824219 L 6.101562 -4.824219 L 4.632812 0 L 0 0 L 7.15625 -20.355469 L 12.410156 -20.355469 L 19.59375 0 Z M 12.464844 -8.429688 C 11.105469 -12.804688 10.339844 -15.277344 10.171875 -15.847656 C 10 -16.421875 9.878906 -16.875 9.804688 -17.207031 C 9.5 -16.023438 8.625 -13.097656 7.183594 -8.429688 Z M 12.464844 -8.429688 "/></g></g></g><g fill="#ffffff" fill-opacity="1"><g transform="translate(249.288695, 239.749131)"><g><path d="M 14.519531 -5.628906 C 14.519531 -3.800781 13.859375 -2.355469 12.542969 -1.304688 C 11.222656 -0.25 9.390625 0.277344 7.042969 0.277344 C 4.878906 0.277344 2.96875 -0.128906 1.304688 -0.941406 L 1.304688 -4.9375 C 2.671875 -4.328125 3.828125 -3.894531 4.777344 -3.648438 C 5.722656 -3.398438 6.589844 -3.273438 7.375 -3.273438 C 8.320312 -3.273438 9.042969 -3.453125 9.546875 -3.8125 C 10.050781 -4.171875 10.300781 -4.710938 10.300781 -5.421875 C 10.300781 -5.820312 10.191406 -6.171875 9.96875 -6.480469 C 9.746094 -6.792969 9.421875 -7.089844 8.992188 -7.375 C 8.5625 -7.664062 7.6875 -8.121094 6.363281 -8.75 C 5.125 -9.332031 4.195312 -9.890625 3.578125 -10.425781 C 2.957031 -10.964844 2.464844 -11.585938 2.09375 -12.300781 C 1.722656 -13.011719 1.539062 -13.84375 1.539062 -14.796875 C 1.539062 -16.589844 2.148438 -17.996094 3.363281 -19.023438 C 4.578125 -20.050781 6.257812 -20.5625 8.402344 -20.5625 C 9.457031 -20.5625 10.460938 -20.4375 11.417969 -20.1875 C 12.375 -19.9375 13.375 -19.589844 14.421875 -19.136719 L 13.035156 -15.792969 C 11.953125 -16.238281 11.058594 -16.546875 10.351562 -16.722656 C 9.644531 -16.898438 8.949219 -16.984375 8.265625 -16.984375 C 7.449219 -16.984375 6.828125 -16.796875 6.390625 -16.417969 C 5.957031 -16.039062 5.742188 -15.542969 5.742188 -14.933594 C 5.742188 -14.554688 5.828125 -14.222656 6.003906 -13.941406 C 6.179688 -13.660156 6.460938 -13.386719 6.84375 -13.125 C 7.226562 -12.859375 8.132812 -12.386719 9.566406 -11.703125 C 11.460938 -10.796875 12.761719 -9.890625 13.464844 -8.976562 C 14.167969 -8.066406 14.519531 -6.953125 14.519531 -5.628906 Z M 14.519531 -5.628906 "/></g></g></g><g fill="#ffffff" fill-opacity="1"><g transform="translate(264.928487, 239.749131)"><g><path d="M 14.519531 -5.628906 C 14.519531 -3.800781 13.859375 -2.355469 12.542969 -1.304688 C 11.222656 -0.25 9.390625 0.277344 7.042969 0.277344 C 4.878906 0.277344 2.96875 -0.128906 1.304688 -0.941406 L 1.304688 -4.9375 C 2.671875 -4.328125 3.828125 -3.894531 4.777344 -3.648438 C 5.722656 -3.398438 6.589844 -3.273438 7.375 -3.273438 C 8.320312 -3.273438 9.042969 -3.453125 9.546875 -3.8125 C 10.050781 -4.171875 10.300781 -4.710938 10.300781 -5.421875 C 10.300781 -5.820312 10.191406 -6.171875 9.96875 -6.480469 C 9.746094 -6.792969 9.421875 -7.089844 8.992188 -7.375 C 8.5625 -7.664062 7.6875 -8.121094 6.363281 -8.75 C 5.125 -9.332031 4.195312 -9.890625 3.578125 -10.425781 C 2.957031 -10.964844 2.464844 -11.585938 2.09375 -12.300781 C 1.722656 -13.011719 1.539062 -13.84375 1.539062 -14.796875 C 1.539062 -16.589844 2.148438 -17.996094 3.363281 -19.023438 C 4.578125 -20.050781 6.257812 -20.5625 8.402344 -20.5625 C 9.457031 -20.5625 10.460938 -20.4375 11.417969 -20.1875 C 12.375 -19.9375 13.375 -19.589844 14.421875 -19.136719 L 13.035156 -15.792969 C 11.953125 -16.238281 11.058594 -16.546875 10.351562 -16.722656 C 9.644531 -16.898438 8.949219 -16.984375 8.265625 -16.984375 C 7.449219 -16.984375 6.828125 -16.796875 6.390625 -16.417969 C 5.957031 -16.039062 5.742188 -15.542969 5.742188 -14.933594 C 5.742188 -14.554688 5.828125 -14.222656 6.003906 -13.941406 C 6.179688 -13.660156 6.460938 -13.386719 6.84375 -13.125 C 7.226562 -12.859375 8.132812 -12.386719 9.566406 -11.703125 C 11.460938 -10.796875 12.761719 -9.890625 13.464844 -8.976562 C 14.167969 -8.066406 14.519531 -6.953125 14.519531 -5.628906 Z M 14.519531 -5.628906 "/></g></g></g><g fill="#ffffff" fill-opacity="1"><g transform="translate(280.568278, 239.749131)"><g><path d="M 2.550781 -20.273438 L 6.851562 -20.273438 L 6.851562 0 L 2.550781 0 Z M 2.550781 -20.273438 "/></g></g></g><g fill="#ffffff" fill-opacity="1"><g transform="translate(289.968791, 239.749131)"><g><path d="M 14.519531 -5.628906 C 14.519531 -3.800781 13.859375 -2.355469 12.542969 -1.304688 C 11.222656 -0.25 9.390625 0.277344 7.042969 0.277344 C 4.878906 0.277344 2.96875 -0.128906 1.304688 -0.941406 L 1.304688 -4.9375 C 2.671875 -4.328125 3.828125 -3.894531 4.777344 -3.648438 C 5.722656 -3.398438 6.589844 -3.273438 7.375 -3.273438 C 8.320312 -3.273438 9.042969 -3.453125 9.546875 -3.8125 C 10.050781 -4.171875 10.300781 -4.710938 10.300781 -5.421875 C 10.300781 -5.820312 10.191406 -6.171875 9.96875 -6.480469 C 9.746094 -6.792969 9.421875 -7.089844 8.992188 -7.375 C 8.5625 -7.664062 7.6875 -8.121094 6.363281 -8.75 C 5.125 -9.332031 4.195312 -9.890625 3.578125 -10.425781 C 2.957031 -10.964844 2.464844 -11.585938 2.09375 -12.300781 C 1.722656 -13.011719 1.539062 -13.84375 1.539062 -14.796875 C 1.539062 -16.589844 2.148438 -17.996094 3.363281 -19.023438 C 4.578125 -20.050781 6.257812 -20.5625 8.402344 -20.5625 C 9.457031 -20.5625 10.460938 -20.4375 11.417969 -20.1875 C 12.375 -19.9375 13.375 -19.589844 14.421875 -19.136719 L 13.035156 -15.792969 C 11.953125 -16.238281 11.058594 -16.546875 10.351562 -16.722656 C 9.644531 -16.898438 8.949219 -16.984375 8.265625 -16.984375 C 7.449219 -16.984375 6.828125 -16.796875 6.390625 -16.417969 C 5.957031 -16.039062 5.742188 -15.542969 5.742188 -14.933594 C 5.742188 -14.554688 5.828125 -14.222656 6.003906 -13.941406 C 6.179688 -13.660156 6.460938 -13.386719 6.84375 -13.125 C 7.226562 -12.859375 8.132812 -12.386719 9.566406 -11.703125 C 11.460938 -10.796875 12.761719 -9.890625 13.464844 -8.976562 C 14.167969 -8.066406 14.519531 -6.953125 14.519531 -5.628906 Z M 14.519531 -5.628906 "/></g></g></g><g fill="#ffffff" fill-opacity="1"><g transform="translate(305.608582, 239.749131)"><g><path d="M 10.371094 0 L 6.074219 0 L 6.074219 -16.695312 L 0.570312 -16.695312 L 0.570312 -20.273438 L 15.875 -20.273438 L 15.875 -16.695312 L 10.371094 -16.695312 Z M 10.371094 0 "/></g></g></g><g fill="#ffffff" fill-opacity="1"><g transform="translate(322.052547, 239.749131)"><g><path d="M 2.550781 -20.273438 L 6.851562 -20.273438 L 6.851562 0 L 2.550781 0 Z M 2.550781 -20.273438 "/></g></g></g><g fill="#ffffff" fill-opacity="1"><g transform="translate(331.45306, 239.749131)"><g><path d="M 19.371094 -10.332031 C 19.371094 -6.992188 18.421875 -4.4375 16.519531 -2.664062 C 14.621094 -0.886719 11.878906 0 8.292969 0 L 2.550781 0 L 2.550781 -20.273438 L 8.914062 -20.273438 C 12.226562 -20.273438 14.796875 -19.398438 16.625 -17.652344 C 18.457031 -15.902344 19.371094 -13.464844 19.371094 -10.332031 Z M 14.90625 -10.21875 C 14.90625 -14.574219 12.984375 -16.75 9.136719 -16.75 L 6.851562 -16.75 L 6.851562 -3.550781 L 8.695312 -3.550781 C 12.835938 -3.550781 14.90625 -5.773438 14.90625 -10.21875 Z M 14.90625 -10.21875 "/></g></g></g><g fill="#ffffff" fill-opacity="1"><g transform="translate(352.472496, 239.749131)"><g><path d="M 14.960938 0 L 13.492188 -4.824219 L 6.101562 -4.824219 L 4.632812 0 L 0 0 L 7.15625 -20.355469 L 12.410156 -20.355469 L 19.59375 0 Z M 12.464844 -8.429688 C 11.105469 -12.804688 10.339844 -15.277344 10.171875 -15.847656 C 10 -16.421875 9.878906 -16.875 9.804688 -17.207031 C 9.5 -16.023438 8.625 -13.097656 7.183594 -8.429688 Z M 12.464844 -8.429688 "/></g></g></g></svg>